<svg xmlns="http://www.w3.org/2000/svg" version="1.1" xmlns:xlink="http://www.w3.org/1999/xlink" width="512" height="512" x="0" y="0" viewBox="0 0 66 66" style="enable-background:new 0 0 512 512" xml:space="preserve" class=""><g><path d="M29.71 19.94c.39-.1.66-.45.66-.85V16c0-.4-.27-.75-.66-.85l-2.07-.53c-.2-.65-.46-1.27-.78-1.87l1.09-1.84c.21-.34.15-.78-.13-1.07l-2.18-2.18a.863.863 0 0 0-1.06-.13l-1.84 1.09c-.6-.32-1.22-.58-1.87-.78l-.53-2.07a.877.877 0 0 0-.85-.66H16.4c-.4 0-.75.27-.85.66l-.53 2.07c-.65.19-1.27.45-1.87.78l-1.84-1.09a.877.877 0 0 0-1.06.13l-2.18 2.2c-.28.28-.34.72-.13 1.07l1.09 1.84c-.32.6-.58 1.22-.78 1.87l-2.07.53c-.39.1-.66.45-.66.85v3.09c0 .4.27.75.66.85l2.07.53c.2.65.46 1.27.78 1.87L7.94 24.2c-.21.34-.15.78.13 1.07l2.18 2.18c.28.28.72.34 1.07.13l1.84-1.09c.6.32 1.22.58 1.87.78l.53 2.07c.1.39.45.66.85.66h3.09c.4 0 .75-.27.85-.66l.53-2.07c.65-.19 1.27-.45 1.87-.78l1.84 1.09c.34.2.78.15 1.07-.13l2.18-2.18c.28-.28.34-.72.13-1.07l-1.09-1.84c.32-.6.58-1.22.78-1.87zm-3-1.04c-.31.08-.56.33-.63.64-.2.83-.53 1.62-.98 2.35-.17.28-.17.62 0 .9l1 1.69-1.22 1.22-1.69-1a.88.88 0 0 0-.9 0c-.73.44-1.52.77-2.35.98-.31.08-.56.32-.64.63l-.49 1.91h-1.73l-.49-1.91a.871.871 0 0 0-.64-.63c-.83-.2-1.62-.53-2.35-.98a.858.858 0 0 0-.9 0l-1.69 1-1.22-1.22 1-1.69a.88.88 0 0 0 0-.9c-.44-.73-.77-1.52-.98-2.35a.888.888 0 0 0-.63-.64l-1.91-.49v-1.73l1.91-.49c.31-.08.56-.33.63-.64.2-.83.53-1.62.98-2.35.17-.28.17-.62 0-.9l-1-1.69 1.22-1.22 1.69 1c.28.17.63.16.9-.01.73-.44 1.52-.77 2.35-.98.31-.08.56-.32.64-.63l.49-1.91h1.73l.49 1.91c.08.31.33.56.64.63.83.2 1.62.53 2.35.98.28.17.62.17.9 0l1.69-1 1.22 1.22-1 1.69a.88.88 0 0 0 0 .9c.44.73.77 1.52.98 2.35.08.31.32.56.63.64l1.91.49v1.73z" fill="#ffffff" opacity="1" data-original="#000000"></path><path d="M17.94 11.76c-3.19 0-5.79 2.6-5.79 5.79s2.6 5.79 5.79 5.79 5.79-2.6 5.79-5.79-2.59-5.79-5.79-5.79zm0 9.83c-2.23 0-4.04-1.81-4.04-4.04s1.81-4.04 4.04-4.04 4.04 1.81 4.04 4.04-1.81 4.04-4.04 4.04zM32.09 45.12h-4c-.48 0-.88.39-.88.88v12.13h-2.26V42.99c0-.48-.39-.88-.88-.88h-4c-.48 0-.88.39-.88.88v15.13h-2.25V39.99c0-.48-.39-.88-.88-.88h-4c-.48 0-.88.39-.88.88v18.13h-1.13c-.45 0-.85.39-.85.88s.39.88.88.88H42.1c.48 0 .88-.39.88-.88s-.39-.88-.88-.88h-1.13V49c0-.48-.39-.88-.88-.88h-4c-.48 0-.88.39-.88.88v9.12h-2.26V46a.852.852 0 0 0-.86-.88zm-19.13 13V40.87h2.25v17.26h-2.25zm8 0V43.87h2.25v14.25zm8.01 0V46.87h2.25v11.25zm8-8.25h2.25v8.25h-2.25zM63.54 49.6l-7.27-7.27c.72-1.02.64-2.45-.28-3.36l-1.26-1.26c.6-1.54.93-3.2.93-4.9 0-3.6-1.4-6.98-3.94-9.52s-5.92-3.94-9.52-3.94-6.98 1.4-9.52 3.94-3.94 5.92-3.94 9.52 1.4 6.98 3.94 9.52 5.92 3.94 9.52 3.94c1.71 0 3.36-.32 4.9-.93l1.26 1.26a2.603 2.603 0 0 0 3.36.27l7.27 7.27c.61.61 1.42.94 2.28.94s1.67-.34 2.28-.94c.61-.61.94-1.42.94-2.28s-.34-1.65-.95-2.26zm-29.62-8.5c-2.21-2.21-3.43-5.15-3.43-8.28s1.22-6.07 3.43-8.28 5.15-3.43 8.28-3.43 6.07 1.22 8.28 3.43 3.43 5.15 3.43 8.28c0 1.66-.35 3.27-1.01 4.75-.01.01-.01.03-.02.04a12 12 0 0 1-2.4 3.5 11.824 11.824 0 0 1-3.49 2.4c-.02.01-.03.02-.05.02a11.72 11.72 0 0 1-4.74 1.01c-3.13-.01-6.07-1.23-8.28-3.44zm15.68 4.28-.82-.82c1.06-.6 2.05-1.34 2.94-2.22.89-.89 1.62-1.88 2.22-2.94l.82.82c.34.34.34.89 0 1.23l-.31.31-3.32 3.32-.31.31c-.34.32-.88.32-1.22-.01zm12.7 7.54c-.55.55-1.52.56-2.08 0l-7.23-7.23 2.08-2.08 7.23 7.23c.58.57.58 1.51 0 2.08z" fill="#ffffff" opacity="1" data-original="#000000"></path><path d="M48.89 39.51c3.69-3.69 3.69-9.7 0-13.39a9.403 9.403 0 0 0-6.69-2.77c-2.53 0-4.91.98-6.69 2.77-1.79 1.79-2.77 4.16-2.77 6.69s.98 4.9 2.77 6.69 4.17 2.77 6.69 2.77c2.53.01 4.9-.97 6.69-2.76zm-14.41-6.7c0-2.06.8-4 2.26-5.46s3.4-2.26 5.46-2.26 4 .8 5.46 2.26a7.72 7.72 0 0 1 0 10.91c-1.46 1.46-3.39 2.26-5.45 2.26s-4-.8-5.46-2.26a7.622 7.622 0 0 1-2.27-5.45z" fill="#ffffff" opacity="1" data-original="#000000"></path><path d="M46.22 29.73a.881.881 0 0 0-1.24 0l-4.31 4.31-1.26-1.26c-.34-.34-.9-.34-1.24 0s-.34.9 0 1.24l1.88 1.88c.16.16.39.26.62.26s.46-.09.62-.26l4.93-4.93c.34-.34.34-.89 0-1.24z" fill="#ffffff" opacity="1" data-original="#000000"></path><path d="M49.79 49.59c-.48 0-.88.39-.88.88v9.17a3.5 3.5 0 0 1-3.49 3.49H6.76a3.5 3.5 0 0 1-3.49-3.49V6.36c0-1.92 1.56-3.49 3.49-3.49h29.26v7.66c0 2.89 2.35 5.24 5.24 5.24h7.66v2.29c0 .48.39.88.88.88s.88-.39.88-.88V14.9c0-.02-.01-.04-.01-.06 0-.08-.02-.15-.04-.22a.689.689 0 0 0-.03-.08c-.04-.09-.1-.18-.17-.26l-12.9-12.9a.732.732 0 0 0-.26-.17c-.03-.01-.05-.02-.08-.03-.07-.03-.15-.04-.23-.05-.02 0-.03-.01-.05-.01H6.76c-2.89 0-5.24 2.35-5.24 5.24v53.27c0 2.89 2.35 5.24 5.24 5.24h38.67c2.89 0 5.24-2.35 5.24-5.24v-9.17a.886.886 0 0 0-.88-.87zM37.77 10.53V4.11l9.91 9.91h-6.42c-1.93 0-3.49-1.56-3.49-3.49z" fill="#ffffff" opacity="1" data-original="#000000"></path></g></svg>