<svg xmlns="http://www.w3.org/2000/svg" version="1.1" xmlns:xlink="http://www.w3.org/1999/xlink" width="512" height="512" x="0" y="0" viewBox="0 0 64 64" style="enable-background:new 0 0 512 512" xml:space="preserve" class=""><g><path d="M8 45.94a4 4 0 1 0-4-4 4 4 0 0 0 4 4zm0-6a2 2 0 1 1-2 2 2 2 0 0 1 2-2zM2 56.94h12a1 1 0 0 0 1-1v-4a5 5 0 0 0-5-5H6a5 5 0 0 0-5 5v4a1 1 0 0 0 1 1zm1-5a3 3 0 0 1 3-3h4a3 3 0 0 1 3 3v3H3zM56 45.94a4 4 0 1 0-4-4 4 4 0 0 0 4 4zm0-6a2 2 0 1 1-2 2 2 2 0 0 1 2-2zM58 46.94h-4a5 5 0 0 0-5 5v4a1 1 0 0 0 1 1h12a1 1 0 0 0 1-1v-4a5 5 0 0 0-5-5zm3 8H51v-3a3 3 0 0 1 3-3h4a3 3 0 0 1 3 3zM44 63a1 1 0 0 0 1-1v-4a5 5 0 0 0-5-5h-4v-.52h.12A3 3 0 0 0 38 49.65v-2.92A2 2 0 0 0 39 45a2 2 0 0 0-.14-.69l.56-1.05a4.76 4.76 0 0 0-.11-4.72 5.28 5.28 0 0 0-4.6-2.54h-5.42a5.28 5.28 0 0 0-4.6 2.54 4.76 4.76 0 0 0-.11 4.72l.56 1.05A2 2 0 0 0 25 45a2 2 0 0 0 1 1.73v2.92a3 3 0 0 0 1.89 2.78H28V53h-4a5 5 0 0 0-5 5v4a1 1 0 0 0 1 1zM26.44 42.51l-.1-.19a2.73 2.73 0 0 1 .07-2.75A3.29 3.29 0 0 1 29.29 38h5.42a3.29 3.29 0 0 1 2.88 1.57 2.73 2.73 0 0 1 .07 2.75l-.1.19-.56-1.83a1 1 0 0 0-1.24-.68L32 41l-3.76-1a1 1 0 0 0-1.19.65zM27 45a1 1 0 0 0 .95-.68l.71-2.13 3.1.78a1 1 0 0 0 .48 0l3.1-.78.71 2.13A1 1 0 0 0 37 45a1 1 0 0 0-1 1v3.65a1 1 0 0 1-.63.92l-3 1.2a1 1 0 0 1-.74 0l-3-1.2a1 1 0 0 1-.63-.92V46a1 1 0 0 0-1-1zm7 8.28V54a2 2 0 0 1-4 0v-.72l.89.35a2.91 2.91 0 0 0 2.22 0zM21 58a3 3 0 0 1 3-3h4.13a4 4 0 0 0 7.74 0H40a3 3 0 0 1 3 3v3H21zM12 31a1 1 0 0 0-.8-.67l-1.54-.23-.7-1.49a1 1 0 0 0-1.82 0l-.7 1.49-1.54.23a1 1 0 0 0-.8.67 1 1 0 0 0 .23 1l1.15 1.18-.27 1.67a1 1 0 0 0 1.47 1L8 35.12l1.37.76a1 1 0 0 0 .48.12 1 1 0 0 0 .58-.18 1 1 0 0 0 .41-1l-.27-1.67L11.72 32a1 1 0 0 0 .28-1zm-3.22 1.13a1 1 0 0 0-.27.86v.14h-.06a1 1 0 0 0-1 0h-.06v-.14a1 1 0 0 0-.27-.86L7.07 32h.15a1 1 0 0 0 .78-.6 1 1 0 0 0 .76.56h.15zM60 31a1 1 0 0 0-.8-.67l-1.54-.23-.7-1.49a1 1 0 0 0-1.82 0l-.7 1.49-1.54.23a1 1 0 0 0-.8.67 1 1 0 0 0 .23 1l1.15 1.18-.27 1.67a1 1 0 0 0 1.47 1l1.32-.73 1.37.76a1 1 0 0 0 .48.12 1 1 0 0 0 .58-.18 1 1 0 0 0 .41-1l-.27-1.67L59.72 32a1 1 0 0 0 .28-1zm-3.17 1.16a1 1 0 0 0-.27.86v.14h-.06a1 1 0 0 0-1 0h-.06v-.14a1 1 0 0 0-.27-.86l-.1-.16h.15a1 1 0 0 0 .78-.6 1 1 0 0 0 .76.56h.15zM23.05 13.79a1 1 0 0 0 .23 1l3.65 3.74-.86 5.29a1 1 0 0 0 1.47 1L32 22.41l4.46 2.47a1 1 0 0 0 .48.12 1 1 0 0 0 .58-.18 1 1 0 0 0 .41-1l-.86-5.29 3.65-3.74a1 1 0 0 0 .23-1 1 1 0 0 0-.8-.67l-5-.76-2.24-4.78a1 1 0 0 0-1.82 0l-2.24 4.78-5 .76a1 1 0 0 0-.8.67zm6.63.46a1 1 0 0 0 .75-.56L32 10.35l1.57 3.34a1 1 0 0 0 .75.56l3.6.56-2.64 2.7a1 1 0 0 0-.27.86l.62 3.76-3.15-1.74a1 1 0 0 0-1 0l-3.15 1.74.67-3.76a1 1 0 0 0-.27-.86l-2.64-2.7zM16.31 20.15a15.54 15.54 0 0 0 .92 3l1.84-.77a13.92 13.92 0 0 1-.8-2.62zM17.2 10.91l1.85.76a14.05 14.05 0 0 1 1.29-2.42l-1.67-1.11a16.72 16.72 0 0 0-1.47 2.77zM16 17h2a14.28 14.28 0 0 1 .26-2.7l-2-.39A16 16 0 0 0 16 17zM46 17a13.81 13.81 0 0 1-.27 2.73l2 .39A16.36 16.36 0 0 0 48 17h-.4zM18.71 25.91a15.91 15.91 0 0 0 2 2.42l1.42-1.41a14.71 14.71 0 0 1-1.75-2.12zM41.86 7.07a13.62 13.62 0 0 1 1.75 2.11l1.66-1.12a15.42 15.42 0 0 0-2-2.41zM38.07 2.19 37.31 4a14.14 14.14 0 0 1 2.43 1.29l1.1-1.67a16 16 0 0 0-2.77-1.43zM34.69 3.26l.38-2A16.63 16.63 0 0 0 32 1v2a14.26 14.26 0 0 1 2.69.26zM46.76 10.82l-1.84.77a14.15 14.15 0 0 1 .8 2.62l2-.39a14.87 14.87 0 0 0-.96-3zM20.66 5.72l1.42 1.41a13.62 13.62 0 0 1 2.11-1.75l-1.11-1.66a15.4 15.4 0 0 0-2.42 2zM28.83 1.31a16.27 16.27 0 0 0-3 .92l.78 1.85a13.25 13.25 0 0 1 2.62-.81zM45.31 25.88a16.29 16.29 0 0 0 1.48-2.76l-1.85-.77a13.69 13.69 0 0 1-1.29 2.42zM40.9 30.3a15.91 15.91 0 0 0 2.42-2l-1.42-1.41a14.11 14.11 0 0 1-2.11 1.75zM23.13 30.32a16.24 16.24 0 0 0 2.76 1.47l.77-1.85a13.07 13.07 0 0 1-2.42-1.29zM29.28 30.74l-.38 2A16 16 0 0 0 32 33v-2a14.49 14.49 0 0 1-2.72-.26zM34.75 30.73l.38 2a15.82 15.82 0 0 0 3-.91l-.77-1.85a13.43 13.43 0 0 1-2.61.76z" fill="#ffffff" opacity="1" data-original="#000000"></path></g></svg>