<svg xmlns="http://www.w3.org/2000/svg" version="1.1" xmlns:xlink="http://www.w3.org/1999/xlink" width="512" height="512" x="0" y="0" viewBox="0 0 512 512" style="enable-background:new 0 0 512 512" xml:space="preserve" class=""><g><path d="M194.6 304.6c41.6 37.1 106.6 33.5 143.7-8.9 59.8-67.4 7.2-175-82.6-169-89.9 5.3-129.1 118.5-61.1 177.9zm3.1-133.1c31.4-35.5 85.7-38.8 121-7.6C397.5 238 301.8 358.4 212 298c-41-28.9-48.1-89.1-14.3-126.5zm291 213.4V72.3c-.1-1.8-.7-3.7-1.9-5.1-.2-.9-63.3-63.2-63.8-64-1.6-1.4-3.6-2.3-5.7-2.3H158.7c-8.2 0-14.9 6.7-14.9 14.9v149.7c-21 39.5-20.7 88.1 1 127.5 4 7.2 8.7 14.1 14 20.6l-28.9 32.8c-6.4-7.3-18.1-8.3-24.6-.7l-12.4 14C75 380 35.8 424.4 17.6 445c-14.5 16.5-12.9 41.6 3.5 56.1 15.8 14.5 42.3 12.8 56.1-3.5l66.6-75.4v10.6c0 8.2 6.7 14.9 14.9 14.9h190.6c7.4 36.1 39.2 62.5 76.8 62.5 63.5.8 101.4-74.9 62.6-125.3zM425.4 28.5l35.8 35.8h-35.8zm-266.6 143c50.6-91.8 188.3-75.6 216.4 24.5 22.9 76.5-40.9 156.1-120.8 149.7-85.3-4.5-137.2-100-95.6-174.2zM65.1 487c-21.5 22.8-55.3-7.7-35.5-31.4l41.9-47.4 35.5 31.3S65.2 486.9 65.1 487zm52.5-59.5-35.5-31.3 12.2-13.8 35.5 31.3zm22.9-25.8-35.6-31.4 12-13.9 2.4 2.1c5 4.4 26.6 23.5 31.2 27.5l.1-.1 2.3 1.8zm8.5-38.4c-1.3-1.2-5.9-5.2-7.1-6.3l27.9-31.6c2.2 2.1 4.7 4.3 7.1 6.2zm198.7 68.3H159.9V404l5-5.7c6.9-7.7 4.1-18.8-3.8-24.4l29-32.8c103.8 65.4 233.7-31.3 200.6-149.5-28.8-102.4-162.3-131.4-230.8-49.8V17.1h249.5v48.4c0 8.2 6.7 14.9 14.9 14.9h48.4v288.5c-51.4-38.1-124.8-1.1-125 62.7zm78.3 62.5c-34.2.2-62.5-28.2-62.3-62.3-.2-58.1 74.3-84.5 110.7-39.2 32.9 39.7 3.2 102.1-48.4 101.5zM215.9 277.6h92c4.7 0 9.1-2.1 12.1-5.7 5.1-5.8 3.7-13.5 1.6-20.1-4.6-15.7-15.8-29.3-30.2-37.1 15.8-23-1.6-56-29.6-55.5-28-.5-45.6 32.5-29.6 55.5-12.2 6.7-22.1 17.4-27.6 30.2-6.1 13.2-7.5 31.2 11.3 32.7zm46-102.3c29.7 1.7 23.1 45.5-5.8 38.2-21.1-6.8-16.4-38 5.8-38.2zm-16.4 51.2c10.2 5.3 22.6 5.3 32.8 0 15 5.5 26.4 19.4 29.1 35l-91.1.2c2.8-15.8 14.2-29.7 29.2-35.2zm221.4 195.2-41.5 37.9c-2.9 2.7-7.3 2.8-10.4.4l-23.1-18.4c-8.2-6.7 1.6-19 10-12.6l17.7 14.1 36.4-33.2c8-7.1 18.5 4.6 10.9 11.8zm-97-357.4h-36.7c-10.6-.2-10.6-15.9 0-16.1h36.7c10.5.2 10.5 16 0 16.1zm-61.3-8c0 4.4-3.6 8-8 8h-92.3c-10.6-.2-10.5-15.9 0-16.1h92.3c4.4.1 8 3.7 8 8.1z" fill="#ffffff" opacity="1" data-original="#000000" class=""></path></g></svg>