<svg xmlns="http://www.w3.org/2000/svg" version="1.1" xmlns:xlink="http://www.w3.org/1999/xlink" width="512" height="512" x="0" y="0" viewBox="0 0 512 512" style="enable-background:new 0 0 512 512" xml:space="preserve" class=""><g><path d="M492.15 294.54c-5.3-10.16-14.27-17.67-25.27-21.13s-22.65-2.45-32.81 2.84L317.13 337.2c.31-1.79.51-3.61.59-5.46.5-11.45-3.52-22.43-11.32-30.93-7.79-8.5-18.39-13.45-29.84-13.94l-102.25-4.42c-7.45-.32-13.99 1.13-20.59 4.57l-68.29 35.59-7.6-14.58c-1.89-3.63-5.1-6.32-9.02-7.55-3.93-1.24-8.09-.87-11.72 1.02l-33.83 17.63c-3.63 1.89-6.32 5.1-7.55 9.02-1.24 3.92-.87 8.09 1.02 11.72L94.3 488.73c1.89 3.63 5.1 6.32 9.02 7.55 1.53.48 3.1.72 4.65.72 2.44 0 4.85-.58 7.07-1.74l33.83-17.63c3.63-1.89 6.32-5.1 7.55-9.02 1.24-3.92.87-8.09-1.02-11.72l-7.6-14.58 7.09-3.7c2.9-1.51 6.11-1.24 10.68-.26l75.67 16.24c6.21 1.33 12.93 2.56 19.88 2.56 7.21 0 14.67-1.32 22.09-5.18l190.64-99.35c10.16-5.3 17.67-14.27 21.13-25.27 3.48-10.99 2.47-22.64-2.83-32.81zM144.98 465.01a3.32 3.32 0 0 1-1.65 1.98l-33.83 17.63c-.79.41-1.7.49-2.57.22s-1.57-.86-1.98-1.65L27.38 334.33c-.85-1.62-.19-3.71 1.43-4.56l33.83-17.63c.48-.25 1-.38 1.54-.38.35 0 .69.05 1.04.16.87.27 1.57.86 1.98 1.65l77.57 148.86c.41.8.49 1.71.21 2.58zm338.57-141.26c-2.5 7.94-7.91 14.41-15.23 18.23l-190.64 99.35c-9.97 5.2-20.37 4.44-33.91 1.54l-75.67-16.24c-5.94-1.28-12.33-1.99-18.75 1.35l-7.09 3.7-51.29-98.42 68.29-35.59c4.72-2.46 9.21-3.45 14.53-3.23l102.25 4.42c8.25.36 15.89 3.93 21.51 10.07 5.63 6.13 8.53 14.05 8.17 22.3s-3.93 15.89-10.07 21.51c-6.14 5.63-14.07 8.52-22.3 8.17l-68.81-2.97c-3.3-.13-6.11 2.43-6.25 5.74s2.42 6.11 5.74 6.25l68.81 2.97c.63.03 1.26.04 1.89.04 10.76 0 21.01-3.99 29.04-11.36 2.43-2.23 4.56-4.7 6.39-7.34l.05.09 129.4-67.43c7.32-3.82 15.73-4.54 23.66-2.04 7.94 2.5 14.41 7.91 18.23 15.23s4.55 15.72 2.05 23.66zM296.36 111.72c26.67 0 48.36-21.69 48.36-48.36S323.03 15 296.36 15 248 36.7 248 63.36s21.69 48.36 48.36 48.36zm0-84.72c20.05 0 36.36 16.31 36.36 36.36s-16.31 36.36-36.36 36.36S260 83.41 260 63.36 276.31 27 296.36 27zm-92.73 200.76c0 13.6 11.06 24.66 24.66 24.66h136.15c13.6 0 24.66-11.06 24.66-24.66v-4.47c0-51.13-41.6-92.73-92.73-92.73s-92.73 41.6-92.73 92.73v4.47zm12-4.47c0-44.52 36.22-80.73 80.73-80.73 44.52 0 80.73 36.22 80.73 80.73v4.47c0 6.98-5.68 12.66-12.66 12.66H228.28c-6.98 0-12.66-5.68-12.66-12.66v-4.47zm-79.38-60.7 20.61 8.96 8.96 20.61a5.996 5.996 0 0 0 11 0l8.96-20.61 20.61-8.96a5.996 5.996 0 0 0 0-11l-20.61-8.96-8.96-20.61a5.996 5.996 0 0 0-11 0l-8.96 20.61-20.61 8.96c-2.19.95-3.61 3.11-3.61 5.5s1.42 4.54 3.61 5.5zm27.56-9.91c1.39-.61 2.5-1.72 3.11-3.11l4.4-10.12 4.4 10.12c.61 1.39 1.72 2.5 3.11 3.11l10.12 4.4-10.12 4.4c-1.39.61-2.5 1.72-3.11 3.11l-4.4 10.12-4.4-10.12a6.052 6.052 0 0 0-3.11-3.11l-10.12-4.4zM369.46 83.1l20.61 8.96 8.96 20.61a5.996 5.996 0 0 0 11 0l8.96-20.61 20.61-8.96a5.996 5.996 0 0 0 0-11l-20.61-8.96-8.96-20.61a5.996 5.996 0 0 0-11 0l-8.96 20.61-20.61 8.96a5.996 5.996 0 0 0 0 11zm27.56-9.9c1.39-.61 2.5-1.72 3.11-3.11l4.4-10.12 4.4 10.12c.61 1.39 1.72 2.5 3.11 3.11l10.12 4.4-10.13 4.4c-1.39.61-2.5 1.72-3.11 3.11l-4.4 10.12-4.4-10.12a6.052 6.052 0 0 0-3.11-3.11l-10.12-4.4z" fill="#ffffff" opacity="1" data-original="#000000" class=""></path></g></svg>