<svg xmlns="http://www.w3.org/2000/svg" version="1.1" xmlns:xlink="http://www.w3.org/1999/xlink" width="512" height="512" x="0" y="0" viewBox="0 0 512 512" style="enable-background:new 0 0 512 512" xml:space="preserve"><g><path d="M400 430.18C359.63 463.6 308.49 482 256 482c-60.37 0-117.12-23.51-159.81-66.19C53.51 373.12 30 316.37 30 256c0-9.74.62-19.51 1.86-29.06 1.8-14.09 4.95-28.06 9.37-41.52.115-.35.238-.702.355-1.053 1.128.085 2.265.143 3.414.143 24.81 0 45-20.19 45-45s-20.19-45-45-45-45 20.19-45 45c0 12.831 5.409 24.418 14.056 32.624-.455 1.31-.898 2.62-1.326 3.927a255.222 255.222 0 0 0-10.63 47.06A258.414 258.414 0 0 0 0 256c0 68.38 26.63 132.67 74.98 181.02S187.62 512 256 512c59.46 0 117.4-20.85 163.13-58.72 6.39-5.28 7.28-14.73 1.99-21.11-5.28-6.39-14.73-7.28-21.12-1.99zM497.944 339.867c.455-1.31.898-2.62 1.326-3.927 5.01-15.27 8.59-31.11 10.63-47.06 1.39-10.79 2.1-21.85 2.1-32.88 0-68.38-26.63-132.67-74.98-181.02C388.67 26.63 324.38 0 256 0 196.54 0 138.6 20.85 92.87 58.72c-6.39 5.28-7.28 14.73-1.99 21.11 5.28 6.39 14.73 7.28 21.12 1.99C152.37 48.4 203.51 30 256 30c60.37 0 117.12 23.51 159.81 66.19C458.49 138.88 482 195.63 482 256c0 9.74-.62 19.51-1.86 29.06-1.8 14.09-4.95 28.06-9.37 41.52-.115.35-.238.702-.355 1.053a45.4 45.4 0 0 0-3.415-.143c-24.81 0-45 20.19-45 45s20.19 45 45 45 45-20.19 45-45c0-12.831-5.409-24.418-14.056-32.623z" fill="#309591" opacity="1" data-original="#000000"></path><path d="M179.118 358.5c-35.081 0-63.622-28.541-63.622-63.621v-77.758c0-35.081 28.541-63.621 63.622-63.621s63.621 28.541 63.621 63.621v77.758c0 35.08-28.54 63.621-63.621 63.621zm0-175c-18.539 0-33.622 15.083-33.622 33.621v77.758c0 18.539 15.083 33.621 33.622 33.621s33.621-15.083 33.621-33.621v-77.758c0-18.538-15.082-33.621-33.621-33.621zM326.458 358.535c-32.757 0-35.137-.794-37.165-1.47-5.033-1.677-8.792-5.474-10.312-10.417-2.393-7.778 1.91-14.042 3.748-16.718 1.667-2.427 4.137-5.662 7.877-10.559 8.735-11.438 24.996-32.729 52.237-71.651 8.22-11.744 13.52-22.292 15.761-31.363l.612-4.794c-.454-15.553-13.247-28.063-28.907-28.063-13.792 0-25.726 9.798-28.377 23.297-1.596 8.13-9.483 13.428-17.609 11.828-8.129-1.597-13.425-9.48-11.828-17.609 5.408-27.533 29.722-47.516 57.814-47.516 32.488 0 58.919 26.431 58.919 58.92 0 .636-.041 1.271-.121 1.901l-.848 6.639c-.063.5-.153.997-.267 1.487-3.01 12.982-9.932 27.273-20.572 42.475-21.591 30.85-36.394 50.793-46.061 63.573 16.588.026 38.991-.127 59.956-.391l.192-.001c8.196 0 14.892 6.592 14.995 14.812.104 8.284-6.527 15.083-14.811 15.188-24.445.307-42.233.432-55.233.432z" fill="#309591" opacity="1" data-original="#000000"></path></g></svg>