<svg xmlns="http://www.w3.org/2000/svg" version="1.1" xmlns:xlink="http://www.w3.org/1999/xlink" width="512" height="512" x="0" y="0" viewBox="0 0 512 512" style="enable-background:new 0 0 512 512" xml:space="preserve"><g><path d="M400 430.18C359.63 463.6 308.49 482 256 482c-60.37 0-117.12-23.51-159.81-66.19C53.51 373.12 30 316.37 30 256c0-9.74.62-19.51 1.86-29.06 1.8-14.09 4.95-28.06 9.37-41.52.115-.35.238-.702.355-1.053 1.128.085 2.265.143 3.414.143 24.81 0 45-20.19 45-45s-20.19-45-45-45-45 20.19-45 45c0 12.831 5.409 24.418 14.056 32.624-.455 1.31-.898 2.62-1.326 3.927a255.222 255.222 0 0 0-10.63 47.06A258.414 258.414 0 0 0 0 256c0 68.38 26.63 132.67 74.98 181.02S187.62 512 256 512c59.46 0 117.4-20.85 163.13-58.72 6.39-5.28 7.28-14.73 1.99-21.11-5.28-6.39-14.73-7.28-21.12-1.99zM497.944 339.867c.455-1.31.898-2.62 1.326-3.927 5.01-15.27 8.59-31.11 10.63-47.06 1.39-10.79 2.1-21.85 2.1-32.88 0-68.38-26.63-132.67-74.98-181.02C388.67 26.63 324.38 0 256 0 196.54 0 138.6 20.85 92.87 58.72c-6.39 5.28-7.28 14.73-1.99 21.11 5.28 6.39 14.73 7.28 21.12 1.99C152.37 48.4 203.51 30 256 30c60.37 0 117.12 23.51 159.81 66.19C458.49 138.88 482 195.63 482 256c0 9.74-.62 19.51-1.86 29.06-1.8 14.09-4.95 28.06-9.37 41.52-.115.35-.238.702-.355 1.053a45.4 45.4 0 0 0-3.415-.143c-24.81 0-45 20.19-45 45s20.19 45 45 45 45-20.19 45-45c0-12.831-5.409-24.418-14.056-32.623z" fill="#309591" opacity="1" data-original="#000000"></path><path d="M374.766 254c12.015-10.765 19.592-26.387 19.592-43.75 0-32.395-26.355-58.75-58.75-58.75-28.011 0-52.255 19.926-57.647 47.379-1.597 8.129 3.698 16.013 11.827 17.61 8.128 1.596 16.014-3.698 17.61-11.828 2.637-13.42 14.5-23.161 28.21-23.161 15.853 0 28.75 12.897 28.75 28.75S351.461 239 335.608 239c-.459 0-.879.024-1.273.064-7.687.647-13.727 7.081-13.727 14.936s6.04 14.288 13.727 14.936c.394.04.814.064 1.273.064 15.853 0 28.75 12.897 28.75 28.75s-12.897 28.75-28.75 28.75c-14.265 0-26.505-10.628-28.471-24.721a29.098 29.098 0 0 1-.279-4.029c0-8.284-6.716-15-15-15s-15 6.716-15 15c0 2.73.19 5.48.566 8.175 4.024 28.832 29.037 50.575 58.184 50.575 32.395 0 58.75-26.355 58.75-58.75 0-17.363-7.577-32.985-19.592-43.75zM181.263 356.5c-35.081 0-63.622-28.541-63.622-63.621v-77.758c0-35.081 28.541-63.621 63.622-63.621s63.621 28.541 63.621 63.621v77.758c0 35.08-28.541 63.621-63.621 63.621zm0-175c-18.539 0-33.622 15.083-33.622 33.621v77.758c0 18.539 15.083 33.621 33.622 33.621s33.621-15.083 33.621-33.621v-77.758c0-18.538-15.083-33.621-33.621-33.621z" fill="#309591" opacity="1" data-original="#000000"></path></g></svg>